<svg width="35" height="38" viewBox="0 0 35 38" fill="none" xmlns="http://www.w3.org/2000/svg">
<path d="M3.2087 14.2629L3.09469 14.5757L1.04785 12.7382L1.15915 12.431L3.86564 12.4564L3.75163 12.7692L1.48219 12.7213L1.47405 12.741L3.20599 14.2629H3.2087ZM2.32373 13.7838L2.7825 12.5212L3.03768 12.6199L2.57891 13.8824L2.32373 13.781V13.7838Z" fill="black" fill-opacity="0.9"/>
<path d="M3.69736 9.16761C3.6132 9.14506 3.52905 9.13661 3.45032 9.13943C3.3716 9.13943 3.29559 9.15634 3.22229 9.18452C3.149 9.2127 3.08385 9.25216 3.02141 9.3057C2.95897 9.35925 2.90468 9.42689 2.85582 9.50861C2.77709 9.64107 2.73637 9.78198 2.73637 9.93417C2.73637 10.0864 2.78252 10.2357 2.87211 10.3823C2.96169 10.5288 3.10014 10.6641 3.28745 10.7853C3.47476 10.9065 3.65121 10.9769 3.81951 10.9938C3.98782 11.0136 4.13713 10.9882 4.27014 10.9206C4.40316 10.8529 4.50903 10.7486 4.59319 10.6105C4.66919 10.4837 4.71263 10.3513 4.71806 10.2188C4.72349 10.0864 4.69363 9.96235 4.63119 9.84399C4.56604 9.72562 4.46831 9.62416 4.33801 9.53962L4.40588 9.46634L4.00139 10.1399L3.77065 9.99053L4.28372 9.13943L4.51446 9.28879C4.69091 9.40434 4.82393 9.54243 4.90808 9.70589C4.99224 9.86935 5.02753 10.0441 5.01938 10.2273C5.01124 10.4105 4.95152 10.5908 4.84293 10.7684C4.72349 10.9656 4.57418 11.1122 4.39502 11.2024C4.21585 11.2926 4.01768 11.3264 3.80051 11.3038C3.58606 11.2813 3.36346 11.1939 3.13543 11.0474C2.9644 10.9375 2.82596 10.8135 2.71737 10.6782C2.60879 10.5429 2.53549 10.3992 2.48934 10.2498C2.44591 10.1004 2.43505 9.94826 2.45405 9.79608C2.47577 9.64389 2.52735 9.49452 2.61422 9.35079C2.6848 9.23243 2.76895 9.13379 2.86396 9.05206C2.95897 8.97315 3.06213 8.91115 3.17343 8.87169C3.28473 8.83224 3.39875 8.81251 3.51547 8.81533C3.6322 8.81815 3.75165 8.84069 3.86838 8.8886L3.70007 9.16761H3.69736Z" fill="black" fill-opacity="0.9"/>
<path d="M6.0727 8.92194L5.8501 9.16431L4.64209 6.65044L4.85926 6.41089L7.34587 7.51564L7.12327 7.75801L5.04657 6.80826L5.033 6.82235L6.06727 8.91912L6.0727 8.92194ZM5.43205 8.12438L6.32516 7.14363L6.52333 7.33809L5.63022 8.31884L5.43205 8.12438Z" fill="black" fill-opacity="0.9"/>
<path d="M8.11134 6.86485L6.62915 4.72298L7.32681 4.20161C7.48969 4.08043 7.64171 4.01279 7.78559 3.99588C7.92946 3.97897 8.06248 4.00433 8.18464 4.06915C8.30408 4.13397 8.40995 4.22979 8.49682 4.35661C8.58369 4.48343 8.63798 4.61589 8.66241 4.7568C8.68413 4.89772 8.66513 5.03581 8.60541 5.1739C8.54568 5.312 8.43438 5.44164 8.27422 5.56L7.77473 5.93201L7.61456 5.70091L8.10591 5.33454C8.21721 5.25281 8.29322 5.16545 8.33123 5.07526C8.37195 4.98508 8.3828 4.8949 8.36652 4.80471C8.35023 4.71453 8.31222 4.62435 8.2525 4.5398C8.19278 4.45525 8.12491 4.38761 8.04619 4.34534C7.96747 4.30025 7.88331 4.28334 7.7883 4.29743C7.69329 4.31152 7.59013 4.35661 7.47883 4.44116L7.03906 4.76808L8.3638 6.67884L8.11406 6.86485H8.11134Z" fill="black" fill-opacity="0.9"/>
<path d="M10.4513 5.26387L9.36816 2.87964L10.7553 2.20044L10.8721 2.4569L9.7645 2.998L10.131 3.80402L11.168 3.29673L11.2847 3.55319L10.2477 4.06048L10.6169 4.87213L11.7435 4.32257L11.8602 4.57903L10.4567 5.26668L10.4513 5.26387Z" fill="black" fill-opacity="0.9"/>
<path d="M16.2662 1.65949L15.9622 1.70177C15.9323 1.6144 15.8889 1.53831 15.8373 1.47631C15.7857 1.41431 15.7206 1.36358 15.6527 1.32412C15.5848 1.28467 15.5088 1.2593 15.4274 1.24803C15.3487 1.23394 15.2645 1.23394 15.1831 1.24803C15.0311 1.27058 14.898 1.32976 14.7867 1.42558C14.6754 1.5214 14.5913 1.65386 14.5397 1.82013C14.4881 1.98641 14.4773 2.18087 14.5071 2.40915C14.537 2.63742 14.5994 2.82061 14.6917 2.96716C14.784 3.11371 14.898 3.21516 15.0311 3.27716C15.1641 3.33917 15.308 3.35889 15.46 3.33917C15.5441 3.32789 15.6228 3.30535 15.6961 3.26871C15.7694 3.23489 15.8346 3.18698 15.8916 3.13343C15.9486 3.07707 15.9948 3.01225 16.03 2.93616C16.0653 2.86006 16.0871 2.77552 16.0925 2.68252L16.3965 2.64024C16.3911 2.77834 16.3667 2.90234 16.3178 3.01507C16.2716 3.13062 16.2065 3.22925 16.1278 3.31662C16.049 3.40398 15.954 3.47444 15.8482 3.52799C15.7423 3.58153 15.6256 3.61817 15.498 3.6379C15.2835 3.6689 15.0854 3.64072 14.9035 3.55617C14.7216 3.47162 14.5696 3.33635 14.4474 3.14753C14.3253 2.9587 14.2465 2.73043 14.2085 2.45424C14.1705 2.17805 14.1895 1.93286 14.2574 1.71868C14.3253 1.50449 14.4366 1.32976 14.5913 1.1973C14.7433 1.06485 14.9279 0.983117 15.1424 0.952117C15.2699 0.935207 15.3921 0.935207 15.5088 0.957753C15.6256 0.980299 15.7341 1.02257 15.8346 1.08176C15.935 1.14376 16.0219 1.21985 16.0952 1.31849C16.1685 1.41431 16.2282 1.52986 16.2689 1.65949H16.2662Z" fill="black" fill-opacity="0.9"/>
<path d="M17.5745 3.4294L17.7536 0.799988L18.0604 0.822534L17.9817 1.99492L19.3335 2.09356L19.4123 0.921172L19.719 0.943718L19.5399 3.57314L19.2331 3.55059L19.3118 2.37538L17.9599 2.27675L17.8812 3.45195L17.5745 3.4294Z" fill="black" fill-opacity="0.9"/>
<path d="M20.7207 3.80139L21.3994 1.25934L22.2274 1.49607C22.4174 1.55244 22.5667 1.63135 22.6698 1.7328C22.7757 1.83426 22.8409 1.95544 22.868 2.0879C22.8952 2.22036 22.8897 2.36409 22.849 2.51345C22.8083 2.66282 22.7431 2.78682 22.6536 2.88546C22.564 2.9841 22.45 3.04892 22.3088 3.07992C22.1676 3.11092 22.0048 3.09965 21.8147 3.04328L21.1442 2.85164L21.2175 2.57264L21.8772 2.76146C22.0075 2.7981 22.1188 2.80937 22.2084 2.79246C22.2979 2.77555 22.3712 2.7361 22.4282 2.67409C22.4852 2.61209 22.526 2.53036 22.5531 2.42609C22.5803 2.32463 22.5857 2.22881 22.5694 2.14427C22.5531 2.0569 22.5097 1.98081 22.4418 1.91599C22.3739 1.85117 22.2708 1.80044 22.1405 1.76098L21.6193 1.61162L21.0139 3.8803L20.718 3.79575L20.7207 3.80139ZM22.1758 2.99256L22.4744 4.30867L22.1296 4.21003L21.8419 2.89674L22.1758 2.99256Z" fill="black" fill-opacity="0.9"/>
<path d="M24.7275 2.44891L23.6959 4.85851L23.4136 4.72887L24.4451 2.31927L24.7275 2.44891Z" fill="black" fill-opacity="0.9"/>
<path d="M26.9917 4.51434C27.046 4.39597 27.0487 4.2776 26.9944 4.15642C26.9428 4.03805 26.8505 3.93378 26.7202 3.84923C26.6252 3.78723 26.5329 3.74778 26.4433 3.73368C26.3538 3.71959 26.2723 3.72805 26.1963 3.75623C26.123 3.78723 26.0633 3.83796 26.0199 3.90842C25.9846 3.9676 25.9656 4.02678 25.9683 4.08878C25.9683 4.14797 25.9846 4.20715 26.0117 4.26351C26.0389 4.31988 26.0687 4.37342 26.1067 4.42133C26.1447 4.46924 26.1773 4.51434 26.2126 4.55097L26.3945 4.75389C26.4406 4.80462 26.4895 4.86662 26.5438 4.93989C26.5954 5.01316 26.6388 5.09208 26.6741 5.17944C26.7094 5.26681 26.7257 5.35981 26.723 5.45845C26.723 5.55709 26.6877 5.65854 26.6225 5.76282C26.5492 5.884 26.4515 5.97137 26.332 6.03055C26.2126 6.08691 26.0769 6.10664 25.9276 6.08973C25.7783 6.07 25.6181 6.008 25.4552 5.89809C25.3005 5.79664 25.1838 5.68391 25.105 5.5599C25.0236 5.4359 24.9802 5.30626 24.972 5.17099C24.9639 5.03571 24.9937 4.90607 25.0589 4.77925L25.3276 4.9568C25.2842 5.04417 25.2679 5.13153 25.2842 5.2189C25.2978 5.30626 25.3358 5.38517 25.3928 5.46127C25.4498 5.53736 25.5231 5.60218 25.6072 5.65854C25.7077 5.72336 25.8054 5.76563 25.9059 5.78254C26.0063 5.79945 26.0959 5.79382 26.18 5.76564C26.2642 5.73745 26.3293 5.67827 26.3782 5.59936C26.4243 5.52608 26.4406 5.45281 26.4298 5.37954C26.4189 5.30626 26.3891 5.23581 26.3402 5.16253C26.294 5.09208 26.237 5.0188 26.1746 4.94835L25.9574 4.69752C25.819 4.53688 25.7321 4.37906 25.6887 4.22124C25.648 4.06342 25.6724 3.91123 25.7647 3.75905C25.8407 3.63505 25.9384 3.54768 26.0606 3.49695C26.1827 3.44622 26.3158 3.43213 26.4569 3.45186C26.5981 3.47159 26.7392 3.52795 26.875 3.61814C27.0134 3.70832 27.122 3.81541 27.198 3.9366C27.274 4.05778 27.3175 4.1846 27.3256 4.31424C27.3338 4.44388 27.3066 4.56788 27.2415 4.68061L26.989 4.51434H26.9917Z" fill="black" fill-opacity="0.9"/>
<path d="M28.5633 5.25566L28.7506 5.04993L30.1405 6.39986L29.9532 6.60559L29.3696 6.03913L27.8222 7.75825L27.5969 7.54125L29.1443 5.82212L28.5606 5.25566H28.5633Z" fill="black" fill-opacity="0.9"/>
<path d="M31.278 7.79788L29.2936 9.44373L29.1008 9.19291L31.0852 7.54706L31.278 7.79788Z" fill="black" fill-opacity="0.9"/>
<path d="M30.0808 10.5571L29.9207 10.2668L32.5864 9.78772L32.7439 10.0724L31.0092 12.2283L30.8491 11.938L32.3204 10.1456L32.3095 10.1287L30.0781 10.5571H30.0808ZM30.9984 10.1485L31.6472 11.318L31.411 11.4589L30.7622 10.2894L30.9984 10.1485Z" fill="black" fill-opacity="0.9"/>
<path d="M34.4432 14.3275L32.0299 15.1504L31.9376 14.8573L33.4008 12.8479L33.3927 12.8226L31.4978 13.4679L31.4028 13.1636L33.8161 12.3406L33.9084 12.6337L32.4425 14.6516L32.4507 14.677L34.3509 14.0288L34.4459 14.3275H34.4432Z" fill="black" fill-opacity="0.9"/>
<path d="M32.4453 18.0305L34.9862 17.9882L34.9998 18.9098C35.0025 19.093 34.9754 19.2452 34.9156 19.3663C34.8559 19.4875 34.7772 19.5777 34.6767 19.6369C34.5763 19.6961 34.4623 19.7271 34.3401 19.7299C34.2315 19.7299 34.1392 19.713 34.0687 19.6735C33.9981 19.6341 33.9411 19.5833 33.8976 19.5185C33.8542 19.4537 33.8243 19.3861 33.8026 19.31H33.7782C33.7755 19.3917 33.7483 19.4734 33.6995 19.5552C33.6506 19.6369 33.58 19.7073 33.4904 19.7637C33.3982 19.8201 33.2869 19.8483 33.1511 19.8511C33.0235 19.8511 32.9095 19.8257 32.8064 19.7665C32.7032 19.7073 32.6218 19.6143 32.5593 19.4847C32.4969 19.3551 32.4643 19.1888 32.4616 18.9802L32.448 18.0277L32.4453 18.0305ZM32.7222 18.3461L32.7331 18.9802C32.7358 19.1888 32.7765 19.3353 32.8579 19.4227C32.9367 19.5101 33.0317 19.5523 33.1457 19.5495C33.2326 19.5495 33.3113 19.5242 33.3846 19.4762C33.4579 19.4283 33.5149 19.3635 33.5583 19.279C33.6017 19.1944 33.6208 19.093 33.6208 18.9802L33.6099 18.332L32.7276 18.3461H32.7222ZM33.8732 18.3264L33.8814 18.9182C33.8814 19.0141 33.9031 19.1014 33.9411 19.1775C33.9791 19.2536 34.0307 19.3156 34.0985 19.3607C34.1664 19.4058 34.2424 19.4283 34.332 19.4255C34.4433 19.4255 34.5383 19.3804 34.6143 19.2987C34.6903 19.217 34.7283 19.0873 34.7256 18.9126L34.7147 18.3095L33.8705 18.3236L33.8732 18.3264Z" fill="black" fill-opacity="0.9"/>
<path d="M32.3448 21.0993L32.4045 20.7696L34.7282 22.2069L34.6685 22.531L32 22.996L32.0597 22.6663L34.302 22.2999V22.2802L32.3448 21.0965V21.0993ZM33.2976 21.4122L33.0587 22.7395L32.79 22.686L33.0288 21.3586L33.2976 21.4122Z" fill="black" fill-opacity="0.9"/>
<path d="M32.3151 25.5695L31.0229 25.733L31.156 25.3892L32.4427 25.2342L32.3151 25.5695ZM31.6989 23.9772L34.0579 24.9552L33.7403 25.7837C33.667 25.9754 33.5747 26.1191 33.4661 26.2149C33.3575 26.3107 33.2354 26.3671 33.1051 26.3812C32.9748 26.3953 32.839 26.3727 32.6979 26.3164C32.5594 26.26 32.4481 26.1783 32.3613 26.074C32.2771 25.9697 32.2255 25.8457 32.212 25.6992C32.1984 25.5526 32.2282 25.3835 32.3015 25.1947L32.5594 24.524L32.8173 24.6311L32.5649 25.2905C32.5133 25.4202 32.4916 25.5357 32.4997 25.6287C32.5079 25.7217 32.535 25.8035 32.5893 25.8683C32.6436 25.9331 32.7169 25.9838 32.8119 26.0233C32.9069 26.0627 32.9965 26.0796 33.0806 26.0712C33.1648 26.0627 33.2435 26.0289 33.3114 25.9641C33.382 25.8993 33.4417 25.8006 33.4933 25.6682L33.6942 25.1468L31.5876 24.276L31.7016 23.9801L31.6989 23.9772Z" fill="black" fill-opacity="0.9"/>
<path d="M29.6791 28.0637L31.6607 29.7124L31.1233 30.4085C30.9984 30.5691 30.8681 30.679 30.7323 30.7354C30.5966 30.7918 30.4636 30.8059 30.3306 30.7749C30.1976 30.7467 30.0727 30.6819 29.956 30.586C29.8392 30.4902 29.7524 30.3747 29.6954 30.2479C29.6383 30.121 29.6193 29.9801 29.6438 29.8308C29.6655 29.6814 29.7388 29.5264 29.8637 29.3657L30.2491 28.8669L30.4609 29.0445L30.0835 29.5348C29.9994 29.6448 29.9478 29.749 29.9342 29.8477C29.918 29.9463 29.9342 30.0365 29.9695 30.1182C30.0103 30.1999 30.0673 30.276 30.1487 30.3409C30.2274 30.4057 30.3116 30.4508 30.3957 30.4733C30.4826 30.4959 30.5695 30.4874 30.6563 30.448C30.7432 30.4085 30.8328 30.3352 30.9169 30.2225L31.2563 29.7857L29.4863 28.3145L29.6791 28.0665V28.0637Z" fill="black" fill-opacity="0.9"/>
<path d="M27.6756 31.9666L26.4595 31.4903L26.7309 31.248L27.9417 31.7327L27.6783 31.9666H27.6756ZM27.8412 30.2616L29.4944 32.2625L28.8429 32.8431C28.6936 32.9784 28.547 33.0601 28.4059 33.0939C28.2647 33.1277 28.1344 33.1165 28.0095 33.0657C27.8874 33.015 27.7761 32.9305 27.6783 32.8121C27.5806 32.6937 27.5182 32.5697 27.4883 32.4373C27.4585 32.3048 27.472 32.1695 27.5236 32.0315C27.5752 31.8934 27.6783 31.7581 27.8276 31.6256L28.3543 31.1578L28.5362 31.3776L28.015 31.8398C27.9118 31.9328 27.8412 32.0202 27.8059 32.1075C27.7679 32.1949 27.7598 32.2795 27.7788 32.364C27.7978 32.4457 27.8412 32.5275 27.9064 32.6092C27.9715 32.6881 28.0448 32.7473 28.1235 32.7811C28.2023 32.8149 28.2864 32.8206 28.376 32.798C28.4656 32.7755 28.5633 32.7163 28.6692 32.6233L29.0791 32.2569L27.6023 30.4701L27.8358 30.2616H27.8412Z" fill="black" fill-opacity="0.9"/>
<path d="M25.6262 32.071L26.902 34.351L25.5773 35.1486L25.4416 34.9034L26.503 34.2665L26.0714 33.4971L25.0805 34.0945L24.9448 33.8494L25.9356 33.2519L25.5013 32.4769L24.4236 33.1251L24.2878 32.8799L25.6316 32.071H25.6262Z" fill="black" fill-opacity="0.9"/>
<path d="M23.2564 33.3733L24.1061 35.859L23.2972 36.1577C23.1099 36.2282 22.9443 36.2479 22.8004 36.2225C22.6565 36.1972 22.5371 36.1352 22.4366 36.0365C22.3389 35.9379 22.2629 35.8167 22.214 35.6702C22.1652 35.5236 22.1462 35.3799 22.1624 35.239C22.1787 35.0981 22.2357 34.9712 22.3308 34.8557C22.4258 34.7401 22.5669 34.65 22.7515 34.5795L23.3325 34.3653L23.4248 34.633L22.8547 34.8444C22.7271 34.8923 22.6294 34.9543 22.5696 35.0276C22.5072 35.1037 22.4719 35.1854 22.4638 35.2784C22.4556 35.3714 22.4692 35.4672 22.5018 35.5659C22.5371 35.6645 22.5832 35.7491 22.6456 35.8139C22.7081 35.8787 22.7868 35.921 22.8791 35.9351C22.9741 35.952 23.0854 35.9351 23.2157 35.8872L23.7261 35.6983L22.966 33.4804L23.2564 33.3733Z" fill="black" fill-opacity="0.9"/>
<path d="M18.9781 34.486L19.1029 37.1211L17.5719 37.2L17.5583 36.9182L18.7826 36.8562L18.7392 35.9656L17.5936 36.0248L17.58 35.743L18.7256 35.6838L18.6822 34.7876L17.4389 34.8524L17.4253 34.5706L18.9753 34.4917L18.9781 34.486Z" fill="black" fill-opacity="0.9"/>
<path d="M14.6726 36.2872C14.6726 36.4196 14.7188 36.5267 14.8138 36.6141C14.9088 36.7014 15.0337 36.7522 15.1857 36.7747C15.297 36.7888 15.3974 36.786 15.4843 36.7578C15.5712 36.7296 15.6445 36.6902 15.6988 36.631C15.7531 36.5718 15.7856 36.5013 15.7965 36.4168C15.8046 36.3463 15.7965 36.2843 15.7721 36.2308C15.7449 36.1772 15.7096 36.1293 15.6635 36.0899C15.6173 36.0504 15.5658 36.0166 15.5142 35.9884C15.4626 35.9602 15.411 35.9349 15.3676 35.918L15.1206 35.8109C15.0581 35.7827 14.9875 35.7489 14.9115 35.7066C14.8355 35.6643 14.7622 35.6108 14.6944 35.546C14.6265 35.4811 14.5749 35.405 14.5369 35.312C14.4989 35.2219 14.488 35.1148 14.5043 34.9908C14.5233 34.8499 14.5749 34.7259 14.6591 34.6216C14.7459 34.5173 14.8599 34.4412 15.0038 34.3933C15.1477 34.3454 15.316 34.3341 15.5115 34.3595C15.6906 34.3848 15.8426 34.4356 15.9675 34.5145C16.0924 34.5934 16.1847 34.692 16.2444 34.8104C16.3041 34.9288 16.3313 35.0612 16.3231 35.205L16.0082 35.1627C16.0137 35.064 15.992 34.9767 15.9431 34.9062C15.8942 34.8329 15.8291 34.7766 15.7476 34.7343C15.6662 34.692 15.5739 34.6639 15.4735 34.6498C15.3567 34.6329 15.2509 34.6385 15.1531 34.6667C15.0554 34.6949 14.974 34.7399 14.9115 34.8019C14.8491 34.8668 14.8111 34.9457 14.7975 35.0415C14.7867 35.1289 14.8002 35.2021 14.8409 35.2641C14.8817 35.3261 14.936 35.3769 15.0093 35.422C15.0798 35.4671 15.1586 35.5065 15.2454 35.546L15.544 35.6812C15.7341 35.7658 15.8779 35.8729 15.9784 35.9969C16.0788 36.1209 16.1195 36.2731 16.0951 36.4478C16.0761 36.5943 16.0218 36.7155 15.9322 36.8142C15.8426 36.9128 15.7286 36.9833 15.5902 37.0255C15.4517 37.0678 15.3024 37.0791 15.1423 37.0565C14.9794 37.034 14.8382 36.9833 14.7215 36.9072C14.6021 36.8311 14.5125 36.7353 14.4528 36.6197C14.393 36.507 14.3686 36.383 14.3795 36.2505L14.6754 36.29L14.6726 36.2872Z" fill="black" fill-opacity="0.9"/>
<path d="M12.9405 36.2962L12.8536 36.5639L11.0457 35.9382L11.1325 35.6705L11.8899 35.9326L12.6066 33.7006L12.8998 33.802L12.1831 36.0341L12.9405 36.2962Z" fill="black" fill-opacity="0.9"/>
<path d="M9.50947 32.1784L9.38188 32.3672L8.16844 32.6434C8.02728 32.6744 7.90512 32.7054 7.8074 32.7364C7.70967 32.7646 7.62823 32.8012 7.56036 32.8435C7.49521 32.8857 7.43821 32.9393 7.39477 33.0041C7.34319 33.0802 7.31605 33.1591 7.31333 33.238C7.31062 33.3198 7.32962 33.3958 7.36762 33.4719C7.40834 33.5452 7.46535 33.61 7.53865 33.6664C7.61737 33.7256 7.69881 33.7594 7.78025 33.7679C7.86169 33.7763 7.94041 33.7622 8.01371 33.7256C8.087 33.6889 8.15215 33.6298 8.20916 33.5452L8.44805 33.7199C8.36118 33.8468 8.25802 33.9369 8.13858 33.9905C8.01914 34.044 7.89155 34.0638 7.75853 34.044C7.62551 34.0271 7.49793 33.9736 7.37848 33.8834C7.25632 33.7932 7.16674 33.6889 7.10973 33.5678C7.05273 33.4466 7.0283 33.3198 7.03644 33.1901C7.04458 33.0605 7.0853 32.9393 7.16131 32.8294C7.2156 32.7505 7.28076 32.6828 7.35948 32.6265C7.43821 32.5701 7.54136 32.5222 7.67166 32.4799C7.80197 32.4376 7.97027 32.3926 8.1793 32.3475L8.99641 32.1727L9.00726 32.1558L8.04357 31.4484L8.20102 31.2173L9.50947 32.1784Z" fill="black" fill-opacity="0.9"/>
<path d="M6.80298 29.8333C6.93328 29.9714 7.00929 30.1264 7.02829 30.2983C7.04729 30.4702 7.012 30.6534 6.91971 30.8451C6.83012 31.0367 6.68353 31.234 6.48808 31.4341C6.29263 31.6342 6.09989 31.7779 5.91258 31.8681C5.72527 31.9583 5.54882 31.9893 5.38051 31.9667C5.21492 31.9442 5.06833 31.8625 4.93802 31.7244C4.80772 31.5863 4.73443 31.4313 4.71542 31.2594C4.69642 31.0874 4.73171 30.9043 4.82401 30.7098C4.91359 30.5153 5.05747 30.3209 5.25292 30.1208C5.45109 29.9207 5.64383 29.7741 5.83114 29.6868C6.01845 29.5966 6.1949 29.5628 6.36049 29.5881C6.52608 29.6107 6.67267 29.6924 6.80298 29.8305V29.8333ZM6.60752 30.0306C6.47722 29.8925 6.31434 29.8502 6.11346 29.9038C5.91258 29.9573 5.69541 30.1039 5.45923 30.3434C5.30178 30.5041 5.18505 30.6562 5.10633 30.8028C5.02761 30.9493 4.9896 31.0846 4.99232 31.2086C4.99503 31.3326 5.03846 31.4397 5.12533 31.5299C5.25292 31.6652 5.41851 31.7075 5.6194 31.6539C5.82028 31.6004 6.04017 31.4538 6.27634 31.2143C6.43379 31.0536 6.55052 30.9014 6.62924 30.7549C6.70797 30.6083 6.74326 30.4731 6.74054 30.3519C6.73783 30.2279 6.69168 30.1208 6.60481 30.0306H6.60752Z" fill="black" fill-opacity="0.9"/>
<path d="M2.90726 29.0726L4.9921 27.5676L5.16855 27.8297L3.34703 29.143L3.35517 29.1543L4.0474 29.4389L3.78951 29.6249L3.08099 29.3347L2.90454 29.0726H2.90726Z" fill="black" fill-opacity="0.9"/>
<path d="M4.25933 26.3109L1.74286 26.2545L1.72386 26.263L2.2885 27.4889L2.04147 27.6101L1.33838 26.0854L1.59898 25.9558L4.11817 26.0065L4.25661 26.3081L4.25933 26.3109Z" fill="black" fill-opacity="0.9"/>
<path d="M23.6689 26.7616H22.0455C21.717 26.7616 21.4266 26.5389 21.3316 26.212L17.5799 13.3073C17.5691 13.265 17.5311 13.2368 17.4904 13.2368C17.4496 13.2368 17.4116 13.265 17.4008 13.3073L15.6227 19.4229C17.3926 19.6342 18.7689 21.1956 18.7689 23.0922C18.7689 23.1458 18.7255 23.1909 18.6739 23.1909H14.526L13.6464 26.212C13.5514 26.5389 13.261 26.7616 12.9325 26.7616H11.3091C9.78622 26.7616 8.71122 25.2172 9.18628 23.7151L13.6464 9.68868C13.9478 8.73893 14.8056 8.09637 15.7693 8.09637H19.2114C20.1751 8.09637 21.0302 8.73893 21.3343 9.68868L25.7944 23.7151C26.2722 25.2144 25.1945 26.7616 23.6716 26.7616H23.6689Z" fill="black" fill-opacity="0.9"/>
<path d="M1.89475 17.0386H0.985352V21.6605H1.89475V17.0386Z" fill="#910811"/>
<path d="M0 18.217L0 19.1611H2.88294V18.217H0Z" fill="#910811"/>
</svg>
