<svg width="50" height="50" viewBox="0 0 50 50" fill="none" xmlns="http://www.w3.org/2000/svg">
<path d="M32.8125 15.625H4.6875V18.75H32.8125V15.625Z" fill="black"/>
<path d="M32.8125 46.875H4.6875C3.82391 46.875 3.125 46.1753 3.125 45.3125V7.8125C3.125 6.94969 3.82391 6.25 4.6875 6.25H32.8125C33.6761 6.25 34.375 6.94969 34.375 7.8125V45.3125C34.375 46.1753 33.6761 46.875 32.8125 46.875ZM6.25 43.75H31.25V9.375H6.25V43.75Z" fill="black"/>
<path d="M12.5 12.5C11.6364 12.5 10.9375 11.8003 10.9375 10.9375V4.6875C10.9375 3.82469 11.6364 3.125 12.5 3.125C13.3636 3.125 14.0625 3.82469 14.0625 4.6875V10.9375C14.0625 11.8003 13.3636 12.5 12.5 12.5Z" fill="black"/>
<path d="M18.75 12.5C17.8864 12.5 17.1875 11.8003 17.1875 10.9375V4.6875C17.1875 3.82469 17.8864 3.125 18.75 3.125C19.6136 3.125 20.3125 3.82469 20.3125 4.6875V10.9375C20.3125 11.8003 19.6136 12.5 18.75 12.5Z" fill="black"/>
<path d="M25 12.5C24.1364 12.5 23.4375 11.8003 23.4375 10.9375V4.6875C23.4375 3.82469 24.1364 3.125 25 3.125C25.8636 3.125 26.5625 3.82469 26.5625 4.6875V10.9375C26.5625 11.8003 25.8636 12.5 25 12.5Z" fill="black"/>
<path d="M45.3125 10.9375H39.0625V14.0625H45.3125V10.9375Z" fill="black"/>
<path d="M42.1875 45.3125C41.6656 45.3125 41.1773 45.0516 40.8875 44.6167L37.7625 39.9292C37.5916 39.6728 37.5 39.3708 37.5 39.0625V7.8125C37.5 6.08906 38.9023 4.6875 40.625 4.6875H43.75C45.4727 4.6875 46.875 6.08906 46.875 7.8125V39.0625C46.875 39.3708 46.7834 39.6728 46.6125 39.9292L43.4875 44.6167C43.1977 45.0516 42.7094 45.3125 42.1875 45.3125ZM40.625 38.5895L42.1875 40.9333L43.75 38.5895V7.8125H40.625V38.5895Z" fill="black"/>
<path d="M26.5625 25H10.9375C10.0739 25 9.375 24.3003 9.375 23.4375C9.375 22.5747 10.0739 21.875 10.9375 21.875H26.5625C27.4261 21.875 28.125 22.5747 28.125 23.4375C28.125 24.3003 27.4261 25 26.5625 25Z" fill="black"/>
<path d="M26.5625 31.25H10.9375C10.0739 31.25 9.375 30.5503 9.375 29.6875C9.375 28.8247 10.0739 28.125 10.9375 28.125H26.5625C27.4261 28.125 28.125 28.8247 28.125 29.6875C28.125 30.5503 27.4261 31.25 26.5625 31.25Z" fill="black"/>
<path d="M20.3125 37.5H10.9375C10.0739 37.5 9.375 36.8003 9.375 35.9375C9.375 35.0747 10.0739 34.375 10.9375 34.375H20.3125C21.1761 34.375 21.875 35.0747 21.875 35.9375C21.875 36.8003 21.1761 37.5 20.3125 37.5Z" fill="black"/>
</svg>
