<svg width="50" height="50" viewBox="0 0 50 50" fill="none" xmlns="http://www.w3.org/2000/svg">
<path d="M45.3125 10.9375H39.0625V14.0625H43.75V42.1875H6.25V14.0625H25C25.8628 14.0625 26.5625 13.3636 26.5625 12.5C26.5625 11.6364 25.8628 10.9375 25 10.9375H4.6875C3.82469 10.9375 3.125 11.6364 3.125 12.5V43.75C3.125 44.6136 3.82469 45.3125 4.6875 45.3125H45.3125C46.1753 45.3125 46.875 44.6136 46.875 43.75V12.5C46.875 11.6364 46.1753 10.9375 45.3125 10.9375Z" fill="black"/>
<path d="M25 45.3125C24.7986 45.3125 24.5956 45.2744 24.4019 45.1934C23.8183 44.9523 23.4375 44.3817 23.4375 43.75V12.5C23.4375 12.085 23.6023 11.6883 23.8953 11.3953C30.5267 4.76391 38.7169 4.6875 39.0625 4.6875C39.9253 4.6875 40.625 5.38641 40.625 6.25V37.5C40.625 38.3622 39.9277 39.0594 39.067 39.0625C38.9945 39.0625 31.7917 39.1678 26.1047 44.8547C25.8056 45.1538 25.4066 45.3125 25 45.3125ZM26.5625 13.1622V40.3611C30.8327 37.2422 35.228 36.322 37.5 36.0505V7.96047C35.1478 8.30234 30.5473 9.43141 26.5625 13.1622Z" fill="black"/>
<path d="M18.75 20.3125H10.9375C10.0747 20.3125 9.375 19.6136 9.375 18.75C9.375 17.8864 10.0747 17.1875 10.9375 17.1875H18.75C19.6128 17.1875 20.3125 17.8864 20.3125 18.75C20.3125 19.6136 19.6128 20.3125 18.75 20.3125Z" fill="black"/>
<path d="M18.75 26.5625H10.9375C10.0747 26.5625 9.375 25.8636 9.375 25C9.375 24.1364 10.0747 23.4375 10.9375 23.4375H18.75C19.6128 23.4375 20.3125 24.1364 20.3125 25C20.3125 25.8636 19.6128 26.5625 18.75 26.5625Z" fill="black"/>
<path d="M18.75 32.8125H10.9375C10.0747 32.8125 9.375 32.1136 9.375 31.25C9.375 30.3864 10.0747 29.6875 10.9375 29.6875H18.75C19.6128 29.6875 20.3125 30.3864 20.3125 31.25C20.3125 32.1136 19.6128 32.8125 18.75 32.8125Z" fill="black"/>
<path d="M18.75 39.0625H10.9375C10.0747 39.0625 9.375 38.3636 9.375 37.5C9.375 36.6364 10.0747 35.9375 10.9375 35.9375H18.75C19.6128 35.9375 20.3125 36.6364 20.3125 37.5C20.3125 38.3636 19.6128 39.0625 18.75 39.0625Z" fill="black"/>
</svg>
