<svg width="50" height="50" viewBox="0 0 50 50" fill="none" xmlns="http://www.w3.org/2000/svg">
<path d="M9.375 43.75C8.51219 43.75 7.8125 43.0503 7.8125 42.1875V7.8125C7.8125 5.22766 9.91516 3.125 12.5 3.125H40.625C41.4878 3.125 42.1875 3.82469 42.1875 4.6875V39.0625C42.1875 39.9253 41.4878 40.625 40.625 40.625C39.7622 40.625 39.0625 39.9253 39.0625 39.0625V6.25H12.5C11.6386 6.25 10.9375 6.95109 10.9375 7.8125V42.1875C10.9375 43.0503 10.2378 43.75 9.375 43.75Z" fill="black"/>
<path d="M40.625 46.875H12.5C9.91516 46.875 7.8125 44.7723 7.8125 42.1875C7.8125 39.6027 9.91516 37.5 12.5 37.5H40.625C41.2567 37.5 41.8266 37.8808 42.0684 38.4644C42.3103 39.0488 42.1767 39.7202 41.7297 40.1672C41.1903 40.7066 40.8928 41.4245 40.8928 42.1875C40.8928 42.9505 41.1903 43.6684 41.7297 44.2078C42.1767 44.6548 42.3103 45.3262 42.0684 45.9106C41.8266 46.4942 41.2567 46.875 40.625 46.875ZM12.5 40.625C11.6386 40.625 10.9375 41.3261 10.9375 42.1875C10.9375 43.0489 11.6386 43.75 12.5 43.75H37.9769C37.7022 42.7277 37.7022 41.6473 37.9769 40.625H12.5Z" fill="black"/>
<path d="M34.375 15.625H15.625C14.7622 15.625 14.0625 14.9253 14.0625 14.0625C14.0625 13.1997 14.7622 12.5 15.625 12.5H34.375C35.2378 12.5 35.9375 13.1997 35.9375 14.0625C35.9375 14.9253 35.2378 15.625 34.375 15.625Z" fill="black"/>
<path d="M34.375 21.875H15.625C14.7622 21.875 14.0625 21.1753 14.0625 20.3125C14.0625 19.4497 14.7622 18.75 15.625 18.75H34.375C35.2378 18.75 35.9375 19.4497 35.9375 20.3125C35.9375 21.1753 35.2378 21.875 34.375 21.875Z" fill="black"/>
</svg>
