<svg width="50" height="50" viewBox="0 0 50 50" fill="none" xmlns="http://www.w3.org/2000/svg">
<path d="M15.625 26.5625H12.5V39.0625H15.625V26.5625Z" fill="black"/>
<path d="M40.625 26.5625H37.5V39.0625H40.625V26.5625Z" fill="black"/>
<path d="M12.5 17.1875H9.375V26.5625H12.5V17.1875Z" fill="black"/>
<path d="M37.5 17.1875H34.375V26.5625H37.5V17.1875Z" fill="black"/>
<path d="M18.75 10.9375H15.625V17.1875H18.75V10.9375Z" fill="black"/>
<path d="M40.625 10.9375H37.5V17.1875H40.625V10.9375Z" fill="black"/>
<path d="M32.8125 34.375H20.3125C19.4497 34.375 18.75 33.6753 18.75 32.8125C18.75 31.9497 19.4497 31.25 20.3125 31.25H32.8125C33.6761 31.25 34.375 31.9497 34.375 32.8125C34.375 33.6753 33.6761 34.375 32.8125 34.375Z" fill="black"/>
<path d="M45.3125 40.625H7.8125C6.94969 40.625 6.25 39.9253 6.25 39.0625V26.5625C6.25 25.6997 6.94969 25 7.8125 25H45.3125C46.1761 25 46.875 25.6997 46.875 26.5625V39.0625C46.875 39.9253 46.1761 40.625 45.3125 40.625ZM9.375 37.5H43.75V28.125H9.375V37.5Z" fill="black"/>
<path d="M42.1875 28.125H4.6875C3.82469 28.125 3.125 27.4253 3.125 26.5625V17.1875C3.125 16.3247 3.82469 15.625 4.6875 15.625H42.1875C43.0511 15.625 43.75 16.3247 43.75 17.1875V26.5625C43.75 27.4253 43.0511 28.125 42.1875 28.125ZM6.25 25H40.625V18.75H6.25V25Z" fill="black"/>
<path d="M45.3125 18.75H10.9375C10.0747 18.75 9.375 18.0503 9.375 17.1875V10.9375C9.375 10.0747 10.0747 9.375 10.9375 9.375H45.3125C46.1761 9.375 46.875 10.0747 46.875 10.9375V17.1875C46.875 18.0503 46.1761 18.75 45.3125 18.75ZM12.5 15.625H43.75V12.5H12.5V15.625Z" fill="black"/>
</svg>
